<svg width="32" height="29" viewBox="0 0 32 29" fill="none" xmlns="http://www.w3.org/2000/svg">
<path d="M23.568 25.0126C23.4171 25.576 23.1783 25.9543 22.8583 26.1394C21.9269 26.6709 19.92 25.8354 17.576 23.6412C18.3451 22.7806 19.0926 21.8412 19.8034 20.8549C20.384 20.0492 20.9348 19.2092 21.4537 18.3532C21.5909 18.1269 21.7303 17.9006 21.8628 17.672C21.9966 17.44 22.1097 17.208 22.2389 16.976C22.3909 17.368 22.5326 17.7543 22.6629 18.1372C23.4674 17.9749 24.2137 17.7874 24.8937 17.5806C24.5394 16.5132 24.0994 15.4126 23.5897 14.2926C24.0994 13.1726 24.5394 12.072 24.8937 11.0046C25.144 10.2492 25.3486 9.51773 25.5154 8.80687C26.0549 6.51887 26.1794 4.48458 25.7771 2.98058C25.4674 1.8263 24.8526 0.956584 23.9989 0.464013C21.8183 -0.794273 18.8594 0.625156 16 3.3223C13.1417 0.625156 10.1828 -0.794273 8.00113 0.46287C7.14742 0.954298 6.53256 1.82401 6.22399 2.9783C5.82056 4.4823 5.94513 6.51658 6.48456 8.80458C7.19085 8.5943 7.93256 8.40915 8.70171 8.2503C8.25371 6.36115 8.12571 4.71087 8.43085 3.5703C8.58285 3.00687 8.82171 2.62744 9.14171 2.44344C10.072 1.9063 12.0811 2.74401 14.4263 4.94287C13.6583 5.8023 12.9131 6.74058 12.2034 7.72687C11.6217 8.53373 11.0686 9.37144 10.5486 10.2286C10.4103 10.456 10.2686 10.6812 10.136 10.9097C10.0023 11.1417 9.88914 11.3737 9.76114 11.6046C9.60914 11.2126 9.46742 10.8263 9.33713 10.4446C8.53256 10.6069 7.78628 10.7943 7.10628 11.0012C7.46056 12.0686 7.90056 13.1692 8.40913 14.2892C7.89942 15.4092 7.45942 16.5097 7.10513 17.5772C6.85485 18.3326 6.65142 19.064 6.48342 19.7749C5.94399 22.0629 5.81942 24.0972 6.22285 25.6012C6.53256 26.7554 7.14742 27.6252 7.99999 28.1166C8.54856 28.4332 9.14742 28.5806 9.78171 28.5806C11.6651 28.5806 13.8594 27.2812 15.9988 25.2629C18.1383 27.28 20.3337 28.5806 22.2171 28.5806C22.8514 28.5806 23.4491 28.4332 23.9989 28.1166C24.8526 27.6252 25.4663 26.7554 25.7771 25.6012C26.1794 24.0972 26.056 22.0629 25.5154 19.7749C24.8091 19.9852 24.0674 20.1703 23.2983 20.3292C23.7463 22.2217 23.8743 23.872 23.568 25.0126ZM9.14171 26.1394C8.82171 25.9543 8.58285 25.576 8.43085 25.0126C8.12571 23.872 8.25256 22.2217 8.70171 20.3326C8.86856 19.6297 9.07885 18.8983 9.33713 18.1372C9.46742 17.7554 9.60914 17.3692 9.76114 16.9772C9.88914 17.2092 10.0023 17.4412 10.136 17.6732C10.2686 17.9017 10.4068 18.1269 10.5451 18.3543C11.4526 18.4972 12.4274 18.6046 13.4571 18.6743C13.0057 18 12.5566 17.2926 12.1143 16.528C11.6857 15.7874 11.2983 15.0389 10.9326 14.2926C11.2983 13.5463 11.6857 12.7989 12.1143 12.0572C12.5554 11.296 13.0023 10.5829 13.4526 9.91087C14.0286 9.0503 14.6069 8.26515 15.1817 7.54973C15.4571 7.20801 15.7291 6.88458 16 6.57716C16.2708 6.88458 16.5429 7.20915 16.816 7.54973C17.8126 7.57144 18.8103 7.63087 19.7943 7.72801C19.0846 6.74173 18.3394 5.80344 17.5714 4.94401C19.4549 3.17716 21.1223 2.28573 22.1886 2.28573C22.4503 2.28573 22.6743 2.3383 22.8571 2.44458C23.1771 2.62858 23.416 3.00801 23.5669 3.57144C23.872 4.71201 23.7451 6.3623 23.2971 8.25144C23.1303 8.9543 22.92 9.68573 22.6617 10.448C22.5314 10.8309 22.3897 11.2172 22.2377 11.6092C22.1097 11.3772 21.9966 11.1452 21.8617 10.9132C21.7291 10.6834 21.5874 10.4583 21.4491 10.2309C20.5429 10.088 19.5691 9.98058 18.5406 9.91087C18.992 10.5852 19.4411 11.2937 19.8834 12.0572C20.312 12.7977 20.6994 13.5452 21.0651 14.2926C20.6994 15.0389 20.312 15.7863 19.8834 16.528C19.4411 17.2914 18.992 18 18.5406 18.6743C17.9657 19.5326 17.3886 20.3212 16.8148 21.0354C16.5406 21.376 16.2686 21.7006 15.9977 22.008C15.7269 21.7006 15.4548 21.376 15.1806 21.0354C14.1806 21.0137 13.1806 20.9543 12.1931 20.856C12.904 21.8434 13.6526 22.7829 14.4217 23.6434C12.08 25.8377 10.0743 26.6754 9.14171 26.1394Z" fill="#2A80AD"/>
<path d="M2.28571 14.2914C2.28571 13.248 4.04114 11.936 7.10629 11.0034C7.78629 10.7966 8.53257 10.6092 9.33714 10.4469C9.72686 10.368 10.1303 10.296 10.5486 10.2297C11.0686 9.37258 11.6229 8.53487 12.2034 7.72801C11.0023 7.84687 9.824 8.01944 8.70172 8.2503C7.93143 8.40915 7.18971 8.5943 6.48457 8.80458C2.71314 9.92801 0 11.776 0 14.2914C0 16.8069 2.71314 18.6549 6.48457 19.7783C6.65257 19.0674 6.856 18.336 7.10629 17.5806C4.04114 16.6469 2.28571 15.3349 2.28571 14.2914Z" fill="#55C1FA"/>
<path d="M18.5417 9.90972C19.5703 9.97944 20.544 10.0869 21.4503 10.2297C21.8686 10.296 22.272 10.368 22.6617 10.4469C22.92 9.68572 23.1303 8.95429 23.2971 8.25029C22.1749 8.01944 20.9966 7.84686 19.7943 7.72801C18.8091 7.62972 17.8126 7.57029 16.816 7.54972C16.544 7.54401 16.2709 7.53372 15.9989 7.53372C15.7269 7.53372 15.4537 7.54401 15.1817 7.54972C14.6069 8.26515 14.0286 9.04915 13.4526 9.91086C14.2686 9.85601 15.1131 9.82058 15.9989 9.82058C16.8846 9.81944 17.728 9.85487 18.5417 9.90972Z" fill="#55C1FA"/>
<path d="M32 14.2914C32 11.776 29.2869 9.92801 25.5154 8.80458C25.3474 9.51544 25.144 10.2469 24.8937 11.0023C27.9589 11.936 29.7143 13.248 29.7143 14.2914C29.7143 15.3349 27.9589 16.6469 24.8937 17.5794C24.2137 17.7863 23.4686 17.9737 22.6629 18.136C22.2731 18.2149 21.8709 18.2869 21.4537 18.352C20.9349 19.208 20.384 20.048 19.8034 20.8537C21.0023 20.7349 22.1783 20.5623 23.2983 20.3314C24.0686 20.1726 24.8103 19.9874 25.5154 19.7772C29.2869 18.6549 32 16.8069 32 14.2914Z" fill="#55C1FA"/>
<path d="M15.1829 21.0343C15.4549 21.04 15.728 21.0503 16 21.0503C16.272 21.0503 16.544 21.0412 16.8171 21.0343C17.3909 20.3212 17.968 19.5326 18.5429 18.6732C17.728 18.728 16.8857 18.7634 16.0011 18.7634C15.1166 18.7634 14.2731 18.728 13.4594 18.6732C12.4286 18.6034 11.4549 18.496 10.5474 18.3532C10.1303 18.288 9.72799 18.2149 9.33942 18.1372C9.08114 18.8983 8.87085 19.6297 8.70399 20.3326C9.82399 20.5634 10.9989 20.7349 12.1977 20.8549C13.1829 20.9532 14.1829 21.0126 15.1829 21.0343Z" fill="#55C1FA"/>
<path d="M16 17.72C17.8935 17.72 19.4286 16.185 19.4286 14.2914C19.4286 12.3979 17.8935 10.8629 16 10.8629C14.1065 10.8629 12.5714 12.3979 12.5714 14.2914C12.5714 16.185 14.1065 17.72 16 17.72Z" fill="#F25949"/>
</svg>
